<svg width="30" height="31" viewBox="0 0 30 31" fill="none" xmlns="http://www.w3.org/2000/svg">
<circle cx="15" cy="15.6553" r="15" fill="url(#paint0_linear_986_19)"/>
<path d="M14.9999 8.98877C15.2208 8.98882 15.4328 9.07665 15.589 9.23294L20.589 14.2329C20.7408 14.3901 20.8248 14.6006 20.8229 14.8191C20.821 15.0376 20.7334 15.2466 20.5789 15.4011C20.4244 15.5556 20.2153 15.6433 19.9969 15.6452C19.7784 15.6471 19.5679 15.5631 19.4107 15.4113L15.8332 11.8338V21.4888C15.8332 21.7098 15.7454 21.9217 15.5891 22.078C15.4328 22.2343 15.2209 22.3221 14.9999 22.3221C14.7788 22.3221 14.5669 22.2343 14.4106 22.078C14.2543 21.9217 14.1665 21.7098 14.1665 21.4888V11.8338L10.589 15.4113C10.4318 15.5631 10.2213 15.6471 10.0029 15.6452C9.78435 15.6433 9.57534 15.5556 9.42084 15.4011C9.26633 15.2466 9.17869 15.0376 9.17679 14.8191C9.17489 14.6006 9.25889 14.3901 9.41068 14.2329L14.4107 9.23294C14.5669 9.07665 14.7789 8.98882 14.9999 8.98877Z" fill="white"/>
<defs>
<linearGradient id="paint0_linear_986_19" x1="15" y1="0.655273" x2="15" y2="30.6553" gradientUnits="userSpaceOnUse">
<stop stop-color="#6000D1"/>
<stop offset="1" stop-color="#280056"/>
</linearGradient>
</defs>
</svg>
